<svg viewBox="0 0 123 54" xmlns="http://www.w3.org/2000/svg"><g fill="none" fill-rule="evenodd"><g stroke-width=".3" stroke="#FFF"><path d="M25.234 50.03l4.506 2.302-3.792.42zM27.33 43.785l-6.505-5.306 8.502 1.332zM10.597 24.441l-5.033.347 3.05-5.564z"/><path d="M3.504 18.262l5.113.963-1.013-2.653zM8.697 13.09l-.342-4.23-.75 7.712z"/><path d="M8.697 13.09l3.45-1.472-2.679 4.169-1.864.785zM3.504 18.262l2.058 6.535 1.916-4.608z"/><path d="M3.504 18.262l5.113.963-1.14.964z"/><path d="M5.563 24.79l3.054-5.565-1.14.964zM7.525 34.796l4.411-4.83 3.265-.175v4.457zM7.525 34.796l7.238 2.033.438-2.581zM15.774 45.476l5.559 2.103 5.97-3.814-8.165-2.837z"/><path d="M13.65 46.996l2.14-1.54 4.136 3.464-1.674 2.682zM15.726 45.401l4.2 3.519 1.41-1.34z"/><path d="M25.234 50.03l-3.894-2.457-1.414 1.347 6.022 3.832zM22.499 51.217l1.047 2.225-5.294-1.84z"/><path d="M22.499 51.217l-2.573-2.297-1.674 2.682z"/><path d="M22.499 51.217l-2.573-2.297 6.022 3.832z"/><path d="M22.499 51.217l1.047 2.225 2.403-.694zM7.525 34.796l-3.543.902.43.843z"/><path d="M7.525 34.796l-3.118 1.742 8.045 4.037 2.298-3.754z"/><path d="M7.438 44.826l3.676-3.26-6.707-5.03z"/><path d="M12.456 40.576l-1.342.99-6.707-5.03z"/><path d="M12.456 40.576l-1.342.99 2.535 5.442z"/><path d="M7.438 44.826l3.676-3.26 2.539 5.428zM35.91 46.444l-10.699 3.623 2.087-6.309z"/><path d="M35.91 46.444l-1.958-3.401-6.654.715zM35.91 46.444l-.595 4.304 8.303-4.617z"/><path d="M35.91 46.444l-1.958-3.401 9.666 3.088zM27.3 43.764l-2.089 6.303-3.881-2.495zM29.731 52.332l5.585-1.586-2.782-.68z"/><path d="M35.91 46.444l-.594 4.302-2.782-.68z"/><path d="M35.91 46.444l-10.699 3.623h7.323zM29.731 52.332l-4.563-2.265h7.366zM27.33 43.785l-6.505-5.306-1.683 2.443z"/><path d="M14.748 36.821l6.077 1.658-1.683 2.443z"/><path d="M15.777 45.47l-1.03-8.66 4.395 4.112z"/><path d="M15.777 45.47l-1.03-8.66-2.295 3.764z"/><path d="M15.777 45.47l-2.13 1.533-1.195-6.429 3.325 4.896zm0 0l-2.13 1.533-1.195-6.429 3.325 4.896zM3.982 25.402l-2.86 2.246 2.86 8.05 4.274-6.358zM7.525 34.796l-3.543.902 4.274-6.358z"/><path d="M7.525 34.796l4.411-4.83-3.68-.626z"/><path d="M3.982 25.402l7.964 4.57-3.69-.632z"/><path d="M5.557 24.786l-1.575.616 7.964 4.57 3.044-3.98-4.4-1.55z"/><path d="M3.982 25.402l1.577-.616-2.053-6.519zM27.33 43.785l1.997-3.974 5.862-1.419z"/><path d="M35.18 38.397l-1.248 4.666-6.63.7zM19.012 32.292l-.954 3.053-2.86-5.552z"/><path d="M19.012 32.292l-4.026-6.295.211 3.796z"/><path d="M11.94 29.973l3.048-3.985.21 3.805z"/><path d="M15.783 22.1l-.522 2.566L14.989 26l-4.414-1.557 5.208-2.344z"/><path d="M15.783 22.103l-.522 2.567c-.136.667-.277 1.339-.277 1.339l3.402-4.086-2.603.18z"/><path d="M15.783 22.103l.708-2.722 1.895 2.542z"/><path d="M15.783 22.103l.708-2.722-5.895 5.062z"/><path d="M10.405 23.384l7.183-9.445-1.097 5.442-5.895 5.062z"/><path d="M18.735 14.995l-1.17-.967-1.074 5.353 1.884 2.578zM18.735 14.995l4.857-2.749-6.026 1.782zM15.197 34.246l2.861 1.099-2.86-5.552z"/><path d="M15.197 34.246l2.861 1.099-3.298 1.482z"/><path d="M20.816 38.487l-2.758-3.142-3.298 1.482zM12.283 15.776l5.29-1.732-7.164 9.34z"/><path d="M12.283 15.776H9.477l.932 7.609z"/><path d="M7.598 16.575l1.879-.799 1.114 8.66zM8.691 13.096l7.524-3.217-.776-1.832zM12.283 15.776H9.477l2.669-4.157z"/><path d="M12.283 15.776l5.287-1.719-5.429-2.44z"/><path d="M16.192 9.865l1.378 4.192-5.434-2.44zM16.192 9.865l-.75-1.811 2.572-5.787z"/><path d="M8.353 8.87l7.085-.811 2.574-5.783z"/><path d="M8.691 13.096l1.911-2.442 4.837-2.607z"/><path d="M15.441 8.056L10.6 10.655 8.35 8.868z"/><path d="M8.696 13.12l1.903-2.465-2.246-1.788zM36.267 5.367l-8.741.656 6.253 4.157z"/><path d="M36.57 2.608l-.303 2.759-8.741.656-2.477-2.516z"/><path d="M36.571 2.607l-7.126-1.542-4.396 2.442zM40.008 13.81L38.34 9.784l-5.417 5.634zM33.775 10.17l-6.24-4.15-.622 4.931 4.51.798z"/><g><path d="M32.918 15.424L38.341 9.8l-.203-5.392z"/><path d="M32.918 15.424l.856-5.253 2.492-4.812 1.872-.951z"/><path d="M33.775 10.17l-2.352 1.579 1.5 3.677z"/></g><path d="M23.6 12.255l-3.545-2.072 6.86.765z"/><path d="M23.6 12.255l-3.545-2.072-2.481 3.85zM17.565 14.045l2.49-3.862-1.026-2.754-2.852 2.417z"/><g><path d="M40.008 13.81l-1.672-4.037 2.803 2.35z"/><path d="M41.135 12.126l-2.794-2.343 4.41-.414z"/></g><g><path d="M40.048 4.971l-1.707 4.814-.203-5.377z"/><path d="M40.046 4.974l-1.709 4.813 4.414-.418zM40.048 4.971l-3.483-2.367 1.573 1.804z"/></g><path d="M36.267 5.367l.302-2.76 1.569 1.8z"/><g><path d="M24.15 6.55l2.768 4.404-6.862-.769-1.027-2.753z"/><path d="M24.15 6.55l2.767 4.404.621-4.936-2.486-2.512z"/><path d="M24.15 6.55l-5.125.885.834-2.445 5.193-1.484z"/></g><path d="M18.012 2.274l1.847 2.716 5.193-1.484z"/><path d="M18.011 2.274L19.86 4.99l-.848 2.518z"/><path d="M18.011 2.273l-1.824 7.575 2.824-2.34z"/><g><path d="M41.447 37.666l2.172 8.468-6.418-5.061-.204-4.022z"/><path d="M35.18 38.397l-1.248 4.666 3.269-1.99-.204-4.022z"/><path d="M33.942 43.049l9.677 3.085-6.418-5.061zM41.447 37.666l-4.185-1.63-.265 1.015z"/><path d="M35.18 38.397l2.082-2.364-.265 1.018z"/></g><path d="M32.925 15.412l7.082-1.6 2.744-4.454-2.71-4.383-3.468-2.362-7.127-1.549-4.394 2.442-7.034-1.235-9.657 6.597-.753 7.703-4.097 1.685.472 7.147-2.86 2.246 2.858 8.045.43.844 3.024 8.28 6.212 2.17 4.605 4.617 5.296 1.829 2.395-.682 3.803-.43 5.57-1.575 8.304-4.62-2.173-8.464-4.18-1.624-2.083 2.35-5.855 1.418-8.52-1.33-2.749-3.134.958-3.066-4.028-6.282 3.388-4.074.36-6.926 4.849-2.744 3.327-1.31 4.514.805z"/></g><path d="M31.959 27.721a4.02 4.02 0 0 1-.3 1.124c-.15.348-.35.65-.6.906a2.654 2.654 0 0 1-.884.601c-.34.144-.723.216-1.148.216-.355 0-.676-.055-.964-.164a2.581 2.581 0 0 1-.765-.446 2.968 2.968 0 0 1-.578-.666 4.1 4.1 0 0 1-.404-.822 5.057 5.057 0 0 1-.235-.915 6.444 6.444 0 0 1-.083-.943v-1.3c.004-.312.032-.627.083-.943.05-.316.13-.621.235-.915a4.1 4.1 0 0 1 .404-.823 3.03 3.03 0 0 1 .578-.668c.223-.191.478-.341.765-.45.288-.109.61-.163.964-.163.433 0 .82.072 1.16.216.34.143.636.344.885.6.248.257.447.56.596.91.15.348.246.728.291 1.139h-.728a4.056 4.056 0 0 0-.236-.869 2.417 2.417 0 0 0-.431-.711 1.943 1.943 0 0 0-.65-.481 2.094 2.094 0 0 0-.887-.176 1.9 1.9 0 0 0-.77.148c-.225.099-.422.23-.591.395-.17.164-.313.356-.432.576-.118.22-.214.453-.287.699a4.968 4.968 0 0 0-.163.755 5.591 5.591 0 0 0-.052.748v1.313c0 .242.018.493.052.752.035.258.09.511.163.758.073.246.169.48.287.699.119.22.262.413.432.579.169.166.366.299.59.397a1.9 1.9 0 0 0 .771.148c.343 0 .642-.056.897-.17.255-.112.471-.27.649-.47a2.41 2.41 0 0 0 .428-.709c.108-.271.185-.563.23-.875h.728zm4.484-6.248h5.16v.666h-2.235v7.652h2.234v.653h-5.16v-.653h2.167V22.14h-2.166v-.666zm15.384 8.971h-.729l-4.088-7.572-.006 7.572h-.729v-8.97h.729l4.088 7.56.006-7.56h.729v8.97zm4.575 0v-8.97h2.154a3.583 3.583 0 0 1 1.53.338c.45.218.829.51 1.139.875.31.366.547.792.71 1.278.163.487.249 1.006.257 1.556v.881a5.103 5.103 0 0 1-.257 1.556c-.163.487-.4.913-.71 1.279-.31.365-.69.656-1.139.872-.448.215-.958.327-1.53.335h-2.154zm.734-8.342v7.72h1.42c.478-.008.897-.107 1.258-.296s.662-.44.903-.754c.24-.315.423-.676.548-1.085a4.53 4.53 0 0 0 .192-1.285v-.9a4.477 4.477 0 0 0-.192-1.275 3.355 3.355 0 0 0-.548-1.078 2.71 2.71 0 0 0-.903-.752c-.361-.189-.78-.287-1.258-.295h-1.42zm9.393-.629h5.159v.666h-2.234v7.652h2.234v.653h-5.16v-.653h2.167V22.14H66.53v-.666zm15.573 6.248a4.02 4.02 0 0 1-.3 1.124c-.15.348-.35.65-.6.906a2.654 2.654 0 0 1-.884.601c-.34.144-.723.216-1.147.216-.355 0-.677-.055-.964-.164a2.581 2.581 0 0 1-.765-.446 2.968 2.968 0 0 1-.579-.666 4.1 4.1 0 0 1-.404-.822 5.057 5.057 0 0 1-.235-.915 6.444 6.444 0 0 1-.083-.943v-1.3c.004-.312.032-.627.083-.943.05-.316.13-.621.235-.915a4.1 4.1 0 0 1 .404-.823 3.03 3.03 0 0 1 .579-.668c.222-.191.477-.341.765-.45.287-.109.609-.163.964-.163.432 0 .819.072 1.16.216.34.143.635.344.884.6.249.257.447.56.596.91.15.348.246.728.291 1.139h-.728a4.056 4.056 0 0 0-.236-.869 2.417 2.417 0 0 0-.431-.711 1.943 1.943 0 0 0-.649-.481 2.094 2.094 0 0 0-.887-.176 1.9 1.9 0 0 0-.772.148c-.224.099-.42.23-.59.395-.17.164-.313.356-.432.576-.118.22-.214.453-.287.699a4.968 4.968 0 0 0-.163.755 5.591 5.591 0 0 0-.052.748v1.313c0 .242.018.493.052.752.035.258.09.511.163.758.073.246.169.48.287.699.119.22.262.413.432.579.17.166.366.299.59.397a1.9 1.9 0 0 0 .772.148c.342 0 .641-.056.896-.17.255-.112.471-.27.649-.47a2.41 2.41 0 0 0 .428-.709c.108-.271.185-.563.23-.875h.728zm8.841.222h-3.39l-.79 2.501h-.74l2.9-8.97h.662l2.876 8.97h-.734l-.784-2.501zm-3.182-.66h2.974l-1.48-4.72-1.494 4.72zm14.643-5.163h-2.84v8.324h-.716l.006-8.324H96.01v-.647h6.395v.647zm9.808 4.436c-.004.304-.03.616-.08.934a5.186 5.186 0 0 1-.229.924 4.373 4.373 0 0 1-.394.838 3.02 3.02 0 0 1-.566.684c-.219.195-.47.35-.756.462-.286.113-.606.17-.961.17-.351 0-.67-.057-.955-.17a2.588 2.588 0 0 1-.762-.462 2.976 2.976 0 0 1-.575-.687 4.347 4.347 0 0 1-.398-.841 5.388 5.388 0 0 1-.233-.921 6.379 6.379 0 0 1-.082-.93v-1.184c.004-.304.031-.615.082-.933.051-.318.128-.627.23-.924a4.22 4.22 0 0 1 .395-.841c.16-.263.352-.493.572-.69.22-.198.472-.353.756-.466a2.57 2.57 0 0 1 .958-.17c.355 0 .675.057.96.17.286.113.54.267.762.462.223.196.414.425.573.687.159.263.29.544.394.842.104.297.18.605.23.924.049.318.075.631.08.94v1.182zm-.722-1.195a6.91 6.91 0 0 0-.055-.745 4.716 4.716 0 0 0-.159-.758 4.013 4.013 0 0 0-.285-.706 2.394 2.394 0 0 0-.425-.588 1.892 1.892 0 0 0-.587-.4 1.884 1.884 0 0 0-.765-.149 1.83 1.83 0 0 0-1.347.555c-.167.168-.309.364-.425.588a4.013 4.013 0 0 0-.285.706c-.073.246-.126.499-.159.758a6.876 6.876 0 0 0-.055.74v1.194c.004.239.023.486.058.743s.089.51.162.758c.074.248.169.485.285.708.116.224.258.42.425.589a1.85 1.85 0 0 0 1.353.555c.29 0 .546-.05.768-.152.222-.1.417-.235.584-.403.168-.169.31-.365.426-.589.116-.223.21-.46.281-.708.072-.249.123-.501.153-.758a7.34 7.34 0 0 0 .052-.743v-1.195zm8.174 1.331h-2.203v3.752h-.722v-8.97h2.515c.392.007.761.071 1.108.19.347.12.65.29.909.515.26.223.463.498.612.822.149.325.223.696.223 1.115 0 .3-.043.573-.131.82a2.38 2.38 0 0 1-.364.668c-.155.2-.34.375-.554.527a3.61 3.61 0 0 1-.707.388l2.032 3.845v.08h-.765l-1.953-3.752zm-2.203-.622h1.94c.278-.009.537-.062.778-.16.24-.1.45-.234.627-.404a1.81 1.81 0 0 0 .416-.613c.1-.238.15-.5.15-.783 0-.316-.055-.597-.165-.844a1.836 1.836 0 0 0-.45-.625 1.96 1.96 0 0 0-.673-.392c-.26-.09-.538-.14-.836-.147h-1.787v3.968z" fill="#FFF"/></g></svg>